<svg width="1244" height="228" viewBox="0 0 1244 228" fill="none" xmlns="http://www.w3.org/2000/svg">
<path d="M115.434 226.551H0.362793L125.309 78.514H240.38L115.434 226.551Z" fill="#6942E2"/>
<path d="M259.061 226.551H143.99L333.853 0.0429688H448.923L259.04 226.551H259.061Z" fill="#6942E2"/>
<path d="M1154.22 162.12L1117.46 68.8393V162.12H1090.47V21.7099H1126.06L1166.74 125.747L1207.61 21.7099H1243.2V162.12H1216.22V68.0571L1179.06 162.12H1154.22Z" fill="#081428"/>
<path d="M986.328 162.12H956.604V21.7099H1011.56C1046.95 21.7099 1067.48 38.1368 1067.48 67.2748C1067.48 86.2439 1055.75 101.302 1035.8 107.951L1071.98 162.12H1036.59L1004.91 112.449H986.328V162.12ZM986.328 46.3502V88.004H1010.19C1028.18 88.004 1037.76 80.9639 1037.76 67.2748C1037.76 53.3902 1028.18 46.3502 1010.19 46.3502H986.328Z" fill="#081428"/>
<path d="M865.051 165.054C825.548 165.054 794.65 132.982 794.65 91.7197C794.65 50.6526 825.548 18.7767 865.051 18.7767C902.012 18.7767 930.954 43.4169 935.843 79.3996H904.358C901.034 59.2571 885.389 45.3725 865.442 45.3725C841.389 45.3725 825.157 64.3416 825.157 91.7197C825.157 119.293 841.389 138.458 865.442 138.458C885.389 138.458 900.838 124.378 904.358 104.235H935.843C930.954 140.609 902.012 165.054 865.051 165.054Z" fill="#081428"/>
<path d="M711.78 105.213V162.12H684.598V57.6926H709.629V72.555C717.256 62.1904 728.011 55.737 741.7 55.737C762.625 55.737 777.096 69.426 777.096 94.653V162.12H750.109V103.844C750.109 88.3951 744.047 79.7906 731.727 79.7906C720.971 79.7906 711.78 88.3951 711.78 105.213Z" fill="#081428"/>
<path d="M664.71 33.4434C664.71 42.6346 657.279 49.4791 646.524 49.4791C635.963 49.4791 628.532 42.6346 628.532 33.4434C628.532 23.8611 635.963 17.0165 646.524 17.0165C657.279 17.0165 664.71 23.8611 664.71 33.4434ZM660.408 162.12H633.226V57.6925H660.408V162.12Z" fill="#081428"/>
<path d="M554.153 162.12H524.428V21.7099H615.166V47.5235H554.153V82.9195H605.584V108.538H554.153V162.12Z" fill="#081428"/>
<path d="M1226.4 226.551H1215.73V196.89H1226.11C1234.88 196.89 1240.92 202.936 1240.92 211.782C1240.92 220.505 1235 226.551 1226.4 226.551ZM1225.63 201.678H1220.92V221.763H1225.91C1231.83 221.763 1235.45 217.949 1235.45 211.782C1235.45 205.492 1231.75 201.678 1225.63 201.678Z" fill="#081428"/>
<path d="M1206.04 226.551H1187.62V196.89H1206.04V201.678H1192.81V209.306H1204.66V213.892H1192.81V221.763H1206.04V226.551Z" fill="#081428"/>
<path d="M1177.92 226.551H1159.5V196.89H1177.92V201.678H1164.7V209.306H1176.55V213.892H1164.7V221.763H1177.92V226.551Z" fill="#081428"/>
<path d="M1137.2 227.038C1128.55 227.038 1122.95 221.033 1122.95 211.741C1122.95 202.53 1128.76 196.403 1137.44 196.403C1144.46 196.403 1149.69 200.501 1150.71 206.872H1145.23C1144.21 203.423 1141.25 201.394 1137.32 201.394C1131.84 201.394 1128.39 205.371 1128.39 211.7C1128.39 217.99 1131.88 222.047 1137.32 222.047C1141.33 222.047 1144.42 219.937 1145.39 216.651H1150.79C1149.65 222.899 1144.21 227.038 1137.2 227.038Z" fill="#081428"/>
<path d="M1102.35 227.038C1093.71 227.038 1088.11 221.033 1088.11 211.741C1088.11 202.53 1093.91 196.403 1102.59 196.403C1109.61 196.403 1114.85 200.501 1115.86 206.872H1110.39C1109.37 203.423 1106.41 201.394 1102.47 201.394C1097 201.394 1093.55 205.371 1093.55 211.7C1093.55 217.99 1097.04 222.047 1102.47 222.047C1106.49 222.047 1109.57 219.937 1110.55 216.651H1115.94C1114.81 222.899 1109.37 227.038 1102.35 227.038Z" fill="#081428"/>
<path d="M1055.87 215.717V196.89H1061.07V215.393C1061.07 219.653 1063.38 222.007 1067.6 222.007C1071.82 222.007 1074.17 219.613 1074.17 215.393V196.89H1079.37V215.717C1079.37 222.656 1074.82 227.038 1067.6 227.038C1060.42 227.038 1055.87 222.697 1055.87 215.717Z" fill="#081428"/>
<path d="M1026.3 205.168C1026.3 199.974 1030.6 196.363 1036.85 196.363C1042.85 196.363 1046.67 199.69 1046.83 205.046H1041.64C1041.52 202.49 1039.69 200.988 1036.77 200.988C1033.56 200.988 1031.49 202.53 1031.49 205.005C1031.49 207.115 1032.63 208.292 1035.1 208.86L1039.77 209.875C1044.84 210.97 1047.32 213.567 1047.32 217.99C1047.32 223.508 1043.02 227.079 1036.48 227.079C1030.15 227.079 1026.02 223.711 1025.89 218.395H1031.09C1031.13 220.911 1033.16 222.413 1036.48 222.413C1039.93 222.413 1042.12 220.911 1042.12 218.436C1042.12 216.448 1041.11 215.271 1038.68 214.744L1033.97 213.689C1028.94 212.593 1026.3 209.712 1026.3 205.168Z" fill="#081428"/>
<path d="M999.741 227.038C997.955 227.038 996.454 225.577 996.454 223.833C996.454 222.047 997.955 220.586 999.741 220.586C1001.53 220.586 1003.03 222.047 1003.03 223.833C1003.03 225.577 1001.53 227.038 999.741 227.038Z" fill="#081428"/>
<path d="M987.457 226.551H969.035V196.89H987.457V201.678H974.229V209.306H986.077V213.892H974.229V221.763H987.457V226.551Z" fill="#081428"/>
<path d="M948.336 196.89V221.763H960.752V226.551H943.142V196.89H948.336Z" fill="#081428"/>
<path d="M914.025 226.551H908.628L919.34 196.89H924.655L935.368 226.551H929.89L927.496 219.694H916.419L914.025 226.551ZM921.328 205.736L917.96 215.312H925.995L922.586 205.736C922.343 204.965 922.059 204.072 921.977 203.463C921.856 204.032 921.612 204.924 921.328 205.736Z" fill="#081428"/>
<path d="M890.428 227.038C881.785 227.038 876.186 221.033 876.186 211.741C876.186 202.53 881.988 196.403 890.671 196.403C897.691 196.403 902.925 200.501 903.94 206.872H898.462C897.447 203.423 894.485 201.394 890.549 201.394C885.072 201.394 881.623 205.371 881.623 211.7C881.623 217.99 885.112 222.047 890.549 222.047C894.567 222.047 897.65 219.937 898.624 216.651H904.021C902.885 222.899 897.447 227.038 890.428 227.038Z" fill="#081428"/>
<path d="M848.116 205.168C848.116 199.974 852.417 196.363 858.665 196.363C864.671 196.363 868.485 199.69 868.647 205.046H863.453C863.332 202.49 861.506 200.988 858.584 200.988C855.379 200.988 853.309 202.53 853.309 205.005C853.309 207.115 854.446 208.292 856.921 208.86L861.587 209.875C866.659 210.97 869.134 213.567 869.134 217.99C869.134 223.508 864.833 227.079 858.3 227.079C851.97 227.079 847.832 223.711 847.71 218.395H852.904C852.944 220.911 854.973 222.413 858.3 222.413C861.749 222.413 863.94 220.911 863.94 218.436C863.94 216.448 862.926 215.271 860.491 214.744L855.785 213.689C850.753 212.593 848.116 209.712 848.116 205.168Z" fill="#081428"/>
<path d="M821.554 227.038C819.769 227.038 818.268 225.577 818.268 223.833C818.268 222.047 819.769 220.586 821.554 220.586C823.34 220.586 824.841 222.047 824.841 223.833C824.841 225.577 823.34 227.038 821.554 227.038Z" fill="#081428"/>
<path d="M809.27 226.551H790.849V196.89H809.27V201.678H796.042V209.306H807.891V213.892H796.042V221.763H809.27V226.551Z" fill="#081428"/>
<path d="M761.156 226.551H756.043V196.89H761.197L775.114 217.909V196.89H780.227V226.551H775.114L761.156 205.533V226.551Z" fill="#081428"/>
<path d="M745.409 196.89V226.551H740.215V196.89H745.409Z" fill="#081428"/>
<path d="M719.519 196.89V221.763H731.935V226.551H714.325V196.89H719.519Z" fill="#081428"/>
<path d="M679.437 226.551H674.406V196.89H679.437L689.013 220.505L698.589 196.89H703.702V226.551H698.67V217.422C698.67 211.457 698.67 209.712 698.954 207.602L691.407 226.551H686.619L679.113 207.643C679.397 209.428 679.437 212.228 679.437 215.92V226.551Z" fill="#081428"/>
<path d="M645.285 226.551H639.889L650.601 196.89H655.916L666.628 226.551H661.151L658.757 219.694H647.679L645.285 226.551ZM652.589 205.736L649.221 215.312H657.255L653.847 205.736C653.603 204.965 653.319 204.072 653.238 203.463C653.116 204.032 652.873 204.924 652.589 205.736Z" fill="#081428"/>
<path d="M633.042 226.551H614.62V196.89H633.042V201.678H619.814V209.306H631.662V213.892H619.814V221.763H633.042V226.551Z" fill="#081428"/>
<path d="M588.573 226.551H583.379V196.89H594.7C601.435 196.89 605.371 200.299 605.371 206.141C605.371 210.118 603.505 212.958 600.015 214.378L605.655 226.551H599.975L594.943 215.474H588.573V226.551ZM588.573 201.516V210.889H594.7C597.986 210.889 599.934 209.144 599.934 206.141C599.934 203.179 597.986 201.516 594.7 201.516H588.573Z" fill="#081428"/>
<path d="M552.792 201.678V196.89H575.353V201.678H566.669V226.551H561.476V201.678H552.792Z" fill="#081428"/>
<path d="M526.011 205.168C526.011 199.974 530.312 196.363 536.561 196.363C542.566 196.363 546.38 199.69 546.542 205.046H541.348C541.227 202.49 539.401 200.988 536.479 200.988C533.274 200.988 531.204 202.53 531.204 205.005C531.204 207.115 532.341 208.292 534.816 208.86L539.482 209.875C544.554 210.97 547.029 213.567 547.029 217.99C547.029 223.508 542.728 227.079 536.195 227.079C529.865 227.079 525.727 223.711 525.605 218.395H530.799C530.839 220.911 532.868 222.413 536.195 222.413C539.644 222.413 541.835 220.911 541.835 218.436C541.835 216.448 540.821 215.271 538.386 214.744L533.68 213.689C528.648 212.593 526.011 209.712 526.011 205.168Z" fill="#081428"/>
</svg>
