<svg width="1244" height="228" viewBox="0 0 1244 228" fill="none" xmlns="http://www.w3.org/2000/svg">
<path d="M115.434 226.795H0.362793L125.309 78.7575H240.38L115.434 226.795Z" fill="#6942E2"/>
<path d="M259.061 226.795H143.99L333.853 0.286438H448.923L259.04 226.795H259.061Z" fill="#6942E2"/>
<path d="M1154.22 162.364L1117.46 69.0828V162.364H1090.47V21.9534H1126.06L1166.74 125.99L1207.61 21.9534H1243.2V162.364H1216.22V68.3005L1179.06 162.364H1154.22Z" fill="white"/>
<path d="M986.328 162.364H956.604V21.9534H1011.56C1046.95 21.9534 1067.48 38.3802 1067.48 67.5183C1067.48 86.4874 1055.75 101.545 1035.8 108.194L1071.98 162.364H1036.59L1004.91 112.692H986.328V162.364ZM986.328 46.5936V88.2474H1010.19C1028.18 88.2474 1037.76 81.2073 1037.76 67.5183C1037.76 53.6337 1028.18 46.5936 1010.19 46.5936H986.328Z" fill="white"/>
<path d="M865.051 165.297C825.548 165.297 794.65 133.226 794.65 91.9631C794.65 50.896 825.548 19.0201 865.051 19.0201C902.012 19.0201 930.954 43.6603 935.843 79.643H904.358C901.034 59.5005 885.389 45.6159 865.442 45.6159C841.389 45.6159 825.157 64.585 825.157 91.9631C825.157 119.537 841.389 138.701 865.442 138.701C885.389 138.701 900.838 124.621 904.358 104.479H935.843C930.954 140.853 902.012 165.297 865.051 165.297Z" fill="white"/>
<path d="M711.78 105.457V162.364H684.598V57.936H709.629V72.7984C717.256 62.4339 728.011 55.9805 741.7 55.9805C762.625 55.9805 777.096 69.6695 777.096 94.8964V162.364H750.109V104.088C750.109 88.6386 744.047 80.0341 731.727 80.0341C720.971 80.0341 711.78 88.6386 711.78 105.457Z" fill="white"/>
<path d="M664.71 33.6869C664.71 42.8781 657.279 49.7226 646.524 49.7226C635.963 49.7226 628.532 42.8781 628.532 33.6869C628.532 24.1045 635.963 17.26 646.524 17.26C657.279 17.26 664.71 24.1045 664.71 33.6869ZM660.408 162.364H633.226V57.936H660.408V162.364Z" fill="white"/>
<path d="M554.153 162.364H524.428V21.9534H615.166V47.767H554.153V83.1629H605.584V108.781H554.153V162.364Z" fill="white"/>
<path d="M1226.4 226.795H1215.73V197.134H1226.11C1234.88 197.134 1240.92 203.179 1240.92 212.025C1240.92 220.749 1235 226.795 1226.4 226.795ZM1225.63 201.922H1220.92V222.007H1225.91C1231.83 222.007 1235.45 218.193 1235.45 212.025C1235.45 205.736 1231.75 201.922 1225.63 201.922Z" fill="white"/>
<path d="M1206.04 226.795H1187.62V197.134H1206.04V201.922H1192.81V209.55H1204.66V214.135H1192.81V222.007H1206.04V226.795Z" fill="white"/>
<path d="M1177.92 226.795H1159.5V197.134H1177.92V201.922H1164.7V209.55H1176.55V214.135H1164.7V222.007H1177.92V226.795Z" fill="white"/>
<path d="M1137.2 227.282C1128.55 227.282 1122.95 221.276 1122.95 211.984C1122.95 202.774 1128.76 196.647 1137.44 196.647C1144.46 196.647 1149.69 200.745 1150.71 207.115H1145.23C1144.21 203.666 1141.25 201.638 1137.32 201.638C1131.84 201.638 1128.39 205.614 1128.39 211.944C1128.39 218.233 1131.88 222.291 1137.32 222.291C1141.33 222.291 1144.42 220.181 1145.39 216.894H1150.79C1149.65 223.143 1144.21 227.282 1137.2 227.282Z" fill="white"/>
<path d="M1102.35 227.282C1093.71 227.282 1088.11 221.276 1088.11 211.984C1088.11 202.774 1093.91 196.647 1102.59 196.647C1109.61 196.647 1114.85 200.745 1115.86 207.115H1110.39C1109.37 203.666 1106.41 201.638 1102.47 201.638C1097 201.638 1093.55 205.614 1093.55 211.944C1093.55 218.233 1097.04 222.291 1102.47 222.291C1106.49 222.291 1109.57 220.181 1110.55 216.894H1115.94C1114.81 223.143 1109.37 227.282 1102.35 227.282Z" fill="white"/>
<path d="M1055.87 215.961V197.134H1061.07V215.636C1061.07 219.897 1063.38 222.25 1067.6 222.25C1071.82 222.25 1074.17 219.856 1074.17 215.636V197.134H1079.37V215.961C1079.37 222.899 1074.82 227.282 1067.6 227.282C1060.42 227.282 1055.87 222.94 1055.87 215.961Z" fill="white"/>
<path d="M1026.3 205.411C1026.3 200.217 1030.6 196.606 1036.85 196.606C1042.85 196.606 1046.67 199.933 1046.83 205.289H1041.64C1041.52 202.733 1039.69 201.232 1036.77 201.232C1033.56 201.232 1031.49 202.774 1031.49 205.249C1031.49 207.359 1032.63 208.536 1035.1 209.104L1039.77 210.118C1044.84 211.214 1047.32 213.81 1047.32 218.233C1047.32 223.752 1043.02 227.322 1036.48 227.322C1030.15 227.322 1026.02 223.954 1025.89 218.639H1031.09C1031.13 221.155 1033.16 222.656 1036.48 222.656C1039.93 222.656 1042.12 221.155 1042.12 218.68C1042.12 216.691 1041.11 215.515 1038.68 214.987L1033.97 213.932C1028.94 212.837 1026.3 209.956 1026.3 205.411Z" fill="white"/>
<path d="M999.741 227.282C997.955 227.282 996.454 225.821 996.454 224.076C996.454 222.291 997.955 220.83 999.741 220.83C1001.53 220.83 1003.03 222.291 1003.03 224.076C1003.03 225.821 1001.53 227.282 999.741 227.282Z" fill="white"/>
<path d="M987.457 226.795H969.035V197.134H987.457V201.922H974.229V209.55H986.077V214.135H974.229V222.007H987.457V226.795Z" fill="white"/>
<path d="M948.336 197.134V222.007H960.752V226.795H943.142V197.134H948.336Z" fill="white"/>
<path d="M914.025 226.795H908.628L919.34 197.134H924.655L935.368 226.795H929.89L927.496 219.937H916.419L914.025 226.795ZM921.328 205.979L917.96 215.555H925.995L922.586 205.979C922.343 205.208 922.059 204.316 921.977 203.707C921.856 204.275 921.612 205.168 921.328 205.979Z" fill="white"/>
<path d="M890.428 227.282C881.785 227.282 876.186 221.276 876.186 211.984C876.186 202.774 881.988 196.647 890.671 196.647C897.691 196.647 902.925 200.745 903.94 207.115H898.462C897.447 203.666 894.485 201.638 890.549 201.638C885.072 201.638 881.623 205.614 881.623 211.944C881.623 218.233 885.112 222.291 890.549 222.291C894.567 222.291 897.65 220.181 898.624 216.894H904.021C902.885 223.143 897.447 227.282 890.428 227.282Z" fill="white"/>
<path d="M848.116 205.411C848.116 200.217 852.417 196.606 858.665 196.606C864.671 196.606 868.485 199.933 868.647 205.289H863.453C863.332 202.733 861.506 201.232 858.584 201.232C855.379 201.232 853.309 202.774 853.309 205.249C853.309 207.359 854.446 208.536 856.921 209.104L861.587 210.118C866.659 211.214 869.134 213.81 869.134 218.233C869.134 223.752 864.833 227.322 858.3 227.322C851.97 227.322 847.832 223.954 847.71 218.639H852.904C852.944 221.155 854.973 222.656 858.3 222.656C861.749 222.656 863.94 221.155 863.94 218.68C863.94 216.691 862.926 215.515 860.491 214.987L855.785 213.932C850.753 212.837 848.116 209.956 848.116 205.411Z" fill="white"/>
<path d="M821.554 227.282C819.769 227.282 818.268 225.821 818.268 224.076C818.268 222.291 819.769 220.83 821.554 220.83C823.34 220.83 824.841 222.291 824.841 224.076C824.841 225.821 823.34 227.282 821.554 227.282Z" fill="white"/>
<path d="M809.27 226.795H790.849V197.134H809.27V201.922H796.042V209.55H807.891V214.135H796.042V222.007H809.27V226.795Z" fill="white"/>
<path d="M761.156 226.795H756.043V197.134H761.197L775.114 218.152V197.134H780.227V226.795H775.114L761.156 205.776V226.795Z" fill="white"/>
<path d="M745.409 197.134V226.795H740.215V197.134H745.409Z" fill="white"/>
<path d="M719.519 197.134V222.007H731.935V226.795H714.325V197.134H719.519Z" fill="white"/>
<path d="M679.437 226.795H674.406V197.134H679.437L689.013 220.749L698.589 197.134H703.702V226.795H698.67V217.665C698.67 211.7 698.67 209.956 698.954 207.846L691.407 226.795H686.619L679.113 207.886C679.397 209.672 679.437 212.471 679.437 216.164V226.795Z" fill="white"/>
<path d="M645.285 226.795H639.889L650.601 197.134H655.916L666.628 226.795H661.151L658.757 219.937H647.679L645.285 226.795ZM652.589 205.979L649.221 215.555H657.255L653.847 205.979C653.603 205.208 653.319 204.316 653.238 203.707C653.116 204.275 652.873 205.168 652.589 205.979Z" fill="white"/>
<path d="M633.042 226.795H614.62V197.134H633.042V201.922H619.814V209.55H631.662V214.135H619.814V222.007H633.042V226.795Z" fill="white"/>
<path d="M588.573 226.795H583.379V197.134H594.7C601.435 197.134 605.371 200.542 605.371 206.385C605.371 210.361 603.505 213.202 600.015 214.622L605.655 226.795H599.975L594.943 215.717H588.573V226.795ZM588.573 201.759V211.132H594.7C597.986 211.132 599.934 209.388 599.934 206.385C599.934 203.423 597.986 201.759 594.7 201.759H588.573Z" fill="white"/>
<path d="M552.792 201.922V197.134H575.353V201.922H566.669V226.795H561.476V201.922H552.792Z" fill="white"/>
<path d="M526.011 205.411C526.011 200.217 530.312 196.606 536.561 196.606C542.566 196.606 546.38 199.933 546.542 205.289H541.348C541.227 202.733 539.401 201.232 536.479 201.232C533.274 201.232 531.204 202.774 531.204 205.249C531.204 207.359 532.341 208.536 534.816 209.104L539.482 210.118C544.554 211.214 547.029 213.81 547.029 218.233C547.029 223.752 542.728 227.322 536.195 227.322C529.865 227.322 525.727 223.954 525.605 218.639H530.799C530.839 221.155 532.868 222.656 536.195 222.656C539.644 222.656 541.835 221.155 541.835 218.68C541.835 216.691 540.821 215.515 538.386 214.987L533.68 213.932C528.648 212.837 526.011 209.956 526.011 205.411Z" fill="white"/>
</svg>
