<svg width="1244" height="228" viewBox="0 0 1244 228" fill="none" xmlns="http://www.w3.org/2000/svg">
<path d="M115.434 226.823H0.362793L125.309 78.7858H240.38L115.434 226.823Z" fill="white"/>
<path d="M259.061 226.823H143.99L333.853 0.314697H448.923L259.04 226.823H259.061Z" fill="white"/>
<path d="M1154.22 162.392L1117.46 69.111V162.392H1090.47V21.9816H1126.06L1166.74 126.018L1207.61 21.9816H1243.2V162.392H1216.22V68.3287L1179.06 162.392H1154.22Z" fill="white"/>
<path d="M986.328 162.392H956.604V21.9816H1011.56C1046.95 21.9816 1067.48 38.4084 1067.48 67.5465C1067.48 86.5156 1055.75 101.574 1035.8 108.223L1071.98 162.392H1036.59L1004.91 112.72H986.328V162.392ZM986.328 46.6218V88.2756H1010.19C1028.18 88.2756 1037.76 81.2355 1037.76 67.5465C1037.76 53.6619 1028.18 46.6218 1010.19 46.6218H986.328Z" fill="white"/>
<path d="M865.051 165.325C825.548 165.325 794.65 133.254 794.65 91.9912C794.65 50.9241 825.548 19.0482 865.051 19.0482C902.012 19.0482 930.954 43.6885 935.843 79.6711H904.358C901.034 59.5287 885.389 45.6441 865.442 45.6441C841.389 45.6441 825.157 64.6132 825.157 91.9912C825.157 119.565 841.389 138.73 865.442 138.73C885.389 138.73 900.838 124.649 904.358 104.507H935.843C930.954 140.881 902.012 165.325 865.051 165.325Z" fill="white"/>
<path d="M711.78 105.485V162.392H684.598V57.9642H709.629V72.8266C717.256 62.4621 728.011 56.0087 741.7 56.0087C762.625 56.0087 777.096 69.6977 777.096 94.9246V162.392H750.109V104.116C750.109 88.6668 744.047 80.0623 731.727 80.0623C720.971 80.0623 711.78 88.6668 711.78 105.485Z" fill="white"/>
<path d="M664.71 33.715C664.71 42.9063 657.279 49.7508 646.524 49.7508C635.963 49.7508 628.532 42.9063 628.532 33.715C628.532 24.1327 635.963 17.2882 646.524 17.2882C657.279 17.2882 664.71 24.1327 664.71 33.715ZM660.408 162.392H633.226V57.9642H660.408V162.392Z" fill="white"/>
<path d="M554.153 162.392H524.428V21.9816H615.166V47.7952H554.153V83.1911H605.584V108.809H554.153V162.392Z" fill="white"/>
<path d="M1226.4 226.823H1215.73V197.162H1226.11C1234.88 197.162 1240.92 203.208 1240.92 212.053C1240.92 220.777 1235 226.823 1226.4 226.823ZM1225.63 201.95H1220.92V222.035H1225.91C1231.83 222.035 1235.45 218.221 1235.45 212.053C1235.45 205.764 1231.75 201.95 1225.63 201.95Z" fill="white"/>
<path d="M1206.04 226.823H1187.62V197.162H1206.04V201.95H1192.81V209.578H1204.66V214.163H1192.81V222.035H1206.04V226.823Z" fill="white"/>
<path d="M1177.92 226.823H1159.5V197.162H1177.92V201.95H1164.7V209.578H1176.55V214.163H1164.7V222.035H1177.92V226.823Z" fill="white"/>
<path d="M1137.2 227.31C1128.55 227.31 1122.95 221.305 1122.95 212.013C1122.95 202.802 1128.76 196.675 1137.44 196.675C1144.46 196.675 1149.69 200.773 1150.71 207.144H1145.23C1144.21 203.695 1141.25 201.666 1137.32 201.666C1131.84 201.666 1128.39 205.642 1128.39 211.972C1128.39 218.261 1131.88 222.319 1137.32 222.319C1141.33 222.319 1144.42 220.209 1145.39 216.922H1150.79C1149.65 223.171 1144.21 227.31 1137.2 227.31Z" fill="white"/>
<path d="M1102.35 227.31C1093.71 227.31 1088.11 221.305 1088.11 212.013C1088.11 202.802 1093.91 196.675 1102.59 196.675C1109.61 196.675 1114.85 200.773 1115.86 207.144H1110.39C1109.37 203.695 1106.41 201.666 1102.47 201.666C1097 201.666 1093.55 205.642 1093.55 211.972C1093.55 218.261 1097.04 222.319 1102.47 222.319C1106.49 222.319 1109.57 220.209 1110.55 216.922H1115.94C1114.81 223.171 1109.37 227.31 1102.35 227.31Z" fill="white"/>
<path d="M1055.87 215.989V197.162H1061.07V215.665C1061.07 219.925 1063.38 222.278 1067.6 222.278C1071.82 222.278 1074.17 219.884 1074.17 215.665V197.162H1079.37V215.989C1079.37 222.928 1074.82 227.31 1067.6 227.31C1060.42 227.31 1055.87 222.968 1055.87 215.989Z" fill="white"/>
<path d="M1026.3 205.439C1026.3 200.246 1030.6 196.634 1036.85 196.634C1042.85 196.634 1046.67 199.962 1046.83 205.318H1041.64C1041.52 202.761 1039.69 201.26 1036.77 201.26C1033.56 201.26 1031.49 202.802 1031.49 205.277C1031.49 207.387 1032.63 208.564 1035.1 209.132L1039.77 210.146C1044.84 211.242 1047.32 213.839 1047.32 218.261C1047.32 223.78 1043.02 227.35 1036.48 227.35C1030.15 227.35 1026.02 223.983 1025.89 218.667H1031.09C1031.13 221.183 1033.16 222.684 1036.48 222.684C1039.93 222.684 1042.12 221.183 1042.12 218.708C1042.12 216.72 1041.11 215.543 1038.68 215.015L1033.97 213.96C1028.94 212.865 1026.3 209.984 1026.3 205.439Z" fill="white"/>
<path d="M999.741 227.31C997.955 227.31 996.454 225.849 996.454 224.104C996.454 222.319 997.955 220.858 999.741 220.858C1001.53 220.858 1003.03 222.319 1003.03 224.104C1003.03 225.849 1001.53 227.31 999.741 227.31Z" fill="white"/>
<path d="M987.457 226.823H969.035V197.162H987.457V201.95H974.229V209.578H986.077V214.163H974.229V222.035H987.457V226.823Z" fill="white"/>
<path d="M948.336 197.162V222.035H960.752V226.823H943.142V197.162H948.336Z" fill="white"/>
<path d="M914.025 226.823H908.628L919.34 197.162H924.655L935.368 226.823H929.89L927.496 219.966H916.419L914.025 226.823ZM921.328 206.007L917.96 215.583H925.995L922.586 206.007C922.343 205.237 922.059 204.344 921.977 203.735C921.856 204.303 921.612 205.196 921.328 206.007Z" fill="white"/>
<path d="M890.428 227.31C881.785 227.31 876.186 221.305 876.186 212.013C876.186 202.802 881.988 196.675 890.671 196.675C897.691 196.675 902.925 200.773 903.94 207.144H898.462C897.447 203.695 894.485 201.666 890.549 201.666C885.072 201.666 881.623 205.642 881.623 211.972C881.623 218.261 885.112 222.319 890.549 222.319C894.567 222.319 897.65 220.209 898.624 216.922H904.021C902.885 223.171 897.447 227.31 890.428 227.31Z" fill="white"/>
<path d="M848.116 205.439C848.116 200.246 852.417 196.634 858.665 196.634C864.671 196.634 868.485 199.962 868.647 205.318H863.453C863.332 202.761 861.506 201.26 858.584 201.26C855.379 201.26 853.309 202.802 853.309 205.277C853.309 207.387 854.446 208.564 856.921 209.132L861.587 210.146C866.659 211.242 869.134 213.839 869.134 218.261C869.134 223.78 864.833 227.35 858.3 227.35C851.97 227.35 847.832 223.983 847.71 218.667H852.904C852.944 221.183 854.973 222.684 858.3 222.684C861.749 222.684 863.94 221.183 863.94 218.708C863.94 216.72 862.926 215.543 860.491 215.015L855.785 213.96C850.753 212.865 848.116 209.984 848.116 205.439Z" fill="white"/>
<path d="M821.554 227.31C819.769 227.31 818.268 225.849 818.268 224.104C818.268 222.319 819.769 220.858 821.554 220.858C823.34 220.858 824.841 222.319 824.841 224.104C824.841 225.849 823.34 227.31 821.554 227.31Z" fill="white"/>
<path d="M809.27 226.823H790.849V197.162H809.27V201.95H796.042V209.578H807.891V214.163H796.042V222.035H809.27V226.823Z" fill="white"/>
<path d="M761.156 226.823H756.043V197.162H761.197L775.114 218.18V197.162H780.227V226.823H775.114L761.156 205.805V226.823Z" fill="white"/>
<path d="M745.409 197.162V226.823H740.215V197.162H745.409Z" fill="white"/>
<path d="M719.519 197.162V222.035H731.935V226.823H714.325V197.162H719.519Z" fill="white"/>
<path d="M679.437 226.823H674.406V197.162H679.437L689.013 220.777L698.589 197.162H703.702V226.823H698.67V217.693C698.67 211.729 698.67 209.984 698.954 207.874L691.407 226.823H686.619L679.113 207.915C679.397 209.7 679.437 212.5 679.437 216.192V226.823Z" fill="white"/>
<path d="M645.285 226.823H639.889L650.601 197.162H655.916L666.628 226.823H661.151L658.757 219.966H647.679L645.285 226.823ZM652.589 206.007L649.221 215.583H657.255L653.847 206.007C653.603 205.237 653.319 204.344 653.238 203.735C653.116 204.303 652.873 205.196 652.589 206.007Z" fill="white"/>
<path d="M633.042 226.823H614.62V197.162H633.042V201.95H619.814V209.578H631.662V214.163H619.814V222.035H633.042V226.823Z" fill="white"/>
<path d="M588.573 226.823H583.379V197.162H594.7C601.435 197.162 605.371 200.57 605.371 206.413C605.371 210.39 603.505 213.23 600.015 214.65L605.655 226.823H599.975L594.943 215.746H588.573V226.823ZM588.573 201.788V211.161H594.7C597.986 211.161 599.934 209.416 599.934 206.413C599.934 203.451 597.986 201.788 594.7 201.788H588.573Z" fill="white"/>
<path d="M552.792 201.95V197.162H575.353V201.95H566.669V226.823H561.476V201.95H552.792Z" fill="white"/>
<path d="M526.011 205.439C526.011 200.246 530.312 196.634 536.561 196.634C542.566 196.634 546.38 199.962 546.542 205.318H541.348C541.227 202.761 539.401 201.26 536.479 201.26C533.274 201.26 531.204 202.802 531.204 205.277C531.204 207.387 532.341 208.564 534.816 209.132L539.482 210.146C544.554 211.242 547.029 213.839 547.029 218.261C547.029 223.78 542.728 227.35 536.195 227.35C529.865 227.35 525.727 223.983 525.605 218.667H530.799C530.839 221.183 532.868 222.684 536.195 222.684C539.644 222.684 541.835 221.183 541.835 218.708C541.835 216.72 540.821 215.543 538.386 215.015L533.68 213.96C528.648 212.865 526.011 209.984 526.011 205.439Z" fill="white"/>
</svg>
